<svg width="24" height="25" viewBox="0 0 24 25" fill="none" xmlns="http://www.w3.org/2000/svg">
<path fill-rule="evenodd" clip-rule="evenodd" d="M2.95252 8.63375C4.49121 5.37371 7.73823 3.07914 11.538 2.90625C9.38902 6.09428 6.04929 7.91826 2.95252 8.63375ZM2.38932 10.1271C2.13582 11.0079 2 11.9385 2 12.901C2 16.276 3.67016 19.2606 6.22865 21.0728C8.9785 16.1428 9.53778 11.5588 8.2577 7.88415C6.36663 9.06654 4.31019 9.79386 2.38932 10.1271ZM7.38391 21.7788C8.76485 22.4991 10.3349 22.9062 12 22.9062C14.5516 22.9062 16.8799 21.9501 18.6468 20.3764C16.373 19.1586 14.7943 17.9359 13.8 16.7262C12.364 14.979 12.1295 13.2235 12.8401 11.6497C13.5186 10.1469 15.0029 8.93788 16.7238 8.0579C17.7163 7.55037 18.8176 7.13657 19.9504 6.83136C18.3341 4.71518 15.8929 3.26333 13.107 2.95637C12.1121 4.64302 10.8307 6.01116 9.40867 7.09046C11.0206 11.3095 10.3696 16.4459 7.38391 21.7788ZM20.736 8.02815C19.5372 8.31746 18.3684 8.73764 17.3397 9.26362C15.7406 10.0814 14.5699 11.1077 14.0735 12.2071C13.6093 13.2353 13.6802 14.4486 14.8453 15.8661C15.7399 16.9545 17.2657 18.1378 19.6327 19.3655C21.1094 17.6218 22 15.3655 22 12.901C22 11.1319 21.5411 9.47007 20.736 8.02815Z" fill="#008F70"/>
</svg>
