<svg width="24" height="24" viewBox="0 0 24 24" fill="none" xmlns="http://www.w3.org/2000/svg">
<path d="M12.001 14.381C12.6322 14.381 13.2376 14.1303 13.6839 13.6839C14.1303 13.2376 14.381 12.6322 14.381 12.001C14.381 11.3698 14.1303 10.7644 13.6839 10.3181C13.2376 9.87175 12.6322 9.621 12.001 9.621C11.3698 9.621 10.7644 9.87175 10.3181 10.3181C9.87175 10.7644 9.621 11.3698 9.621 12.001C9.621 12.6322 9.87175 13.2376 10.3181 13.6839C10.7644 14.1303 11.3698 14.381 12.001 14.381ZM20 18.75C19.8607 18.75 19.7242 18.7112 19.6057 18.638C19.4872 18.5648 19.3915 18.46 19.3292 18.3354C19.2669 18.2108 19.2405 18.0714 19.253 17.9326C19.2655 17.7939 19.3164 17.6614 19.4 17.55C20.6061 15.9516 21.2558 14.0024 21.25 12C21.25 9.98 20.61 8.06 19.4 6.45C19.2807 6.29087 19.2294 6.09085 19.2575 5.89394C19.2857 5.69702 19.3909 5.51935 19.55 5.4C19.7091 5.28066 19.9092 5.22941 20.1061 5.25754C20.303 5.28567 20.4807 5.39087 20.6 5.55C22.01 7.42 22.75 9.65 22.75 12C22.75 14.35 22.01 16.58 20.6 18.45C20.45 18.65 20.23 18.75 20 18.75ZM4 18.75C3.77 18.75 3.55 18.65 3.4 18.45C1.99 16.58 1.25 14.35 1.25 12C1.25 9.65 1.99 7.42 3.4 5.55C3.51935 5.39087 3.69702 5.28567 3.89393 5.25754C4.09085 5.22941 4.29087 5.28066 4.45 5.4C4.60913 5.51935 4.71433 5.69702 4.74246 5.89394C4.77059 6.09085 4.71935 6.29087 4.6 6.45C3.39392 8.0484 2.74417 9.99764 2.75 12C2.75 14.02 3.39 15.94 4.6 17.55C4.68357 17.6614 4.73446 17.7939 4.74697 17.9326C4.75948 18.0714 4.73311 18.2108 4.67082 18.3354C4.60853 18.46 4.51278 18.5648 4.3943 18.638C4.27582 18.7112 4.13928 18.75 4 18.75ZM16.801 16.349C16.6617 16.349 16.5252 16.3102 16.4067 16.237C16.2882 16.1638 16.1925 16.059 16.1302 15.9344C16.0679 15.8098 16.0415 15.6704 16.054 15.5316C16.0665 15.3929 16.1174 15.2604 16.201 15.149C16.891 14.239 17.251 13.149 17.251 11.999C17.251 10.849 16.891 9.759 16.201 8.849C16.0817 8.68987 16.0304 8.48985 16.0585 8.29294C16.0867 8.09602 16.1919 7.91835 16.351 7.799C16.5101 7.67966 16.7102 7.62841 16.9071 7.65654C17.104 7.68467 17.2817 7.78987 17.401 7.949C18.2786 9.11672 18.7524 10.5383 18.751 11.999C18.751 13.469 18.281 14.879 17.401 16.049C17.251 16.249 17.031 16.349 16.801 16.349ZM7.2 16.349C6.97 16.349 6.75 16.249 6.6 16.049C5.72103 14.882 5.24702 13.46 5.25 11.999C5.25 10.529 5.72 9.119 6.6 7.949C6.71935 7.78987 6.89702 7.68467 7.09393 7.65654C7.29085 7.62841 7.49087 7.67966 7.65 7.799C7.80913 7.91835 7.91433 8.09602 7.94246 8.29294C7.97059 8.48985 7.91935 8.68987 7.8 8.849C7.11 9.759 6.75 10.849 6.75 11.999C6.75 13.149 7.11 14.239 7.8 15.149C7.88357 15.2604 7.93446 15.3929 7.94697 15.5316C7.95948 15.6704 7.93311 15.8098 7.87082 15.9344C7.80853 16.059 7.71278 16.1638 7.5943 16.237C7.47582 16.3102 7.33928 16.349 7.2 16.349Z" fill="#EA4235"/>
</svg>
