<svg width="20" height="20" viewBox="0 0 20 20" fill="none" xmlns="http://www.w3.org/2000/svg">
<path d="M9.375 15.2091H7.5C6.58333 15.2091 5.83333 15.9591 5.83333 16.8758V17.0841H5C4.65833 17.0841 4.375 17.3674 4.375 17.7091C4.375 18.0508 4.65833 18.3341 5 18.3341H15C15.3417 18.3341 15.625 18.0508 15.625 17.7091C15.625 17.3674 15.3417 17.0841 15 17.0841H14.1667V16.8758C14.1667 15.9591 13.4167 15.2091 12.5 15.2091H10.625V13.3008C10.4167 13.3258 10.2083 13.3341 10 13.3341C9.79167 13.3341 9.58333 13.3258 9.375 13.3008V15.2091Z" fill="#FBC50D"/>
<path d="M15.4004 9.69935C15.9504 9.49102 16.4337 9.14935 16.8171 8.76602C17.5921 7.90768 18.1004 6.88268 18.1004 5.68268C18.1004 4.48268 17.1587 3.54102 15.9587 3.54102H15.4921C15.2194 2.97941 14.7943 2.50581 14.2653 2.17426C13.7363 1.84272 13.1247 1.6666 12.5004 1.66602H7.50039C6.18372 1.66602 5.05039 2.43268 4.50872 3.54102H4.04206C2.84206 3.54102 1.90039 4.48268 1.90039 5.68268C1.90039 6.88268 2.40872 7.90768 3.18372 8.76602C3.56706 9.14935 4.05039 9.49102 4.60039 9.69935C5.03571 10.7743 5.78243 11.6946 6.74464 12.342C7.70686 12.9894 8.84065 13.3344 10.0004 13.3327C12.4504 13.3327 14.5337 11.8327 15.4004 9.69935ZM12.3671 7.04102L11.8504 7.67435C11.7671 7.76602 11.7087 7.94935 11.7171 8.07435L11.7671 8.89102C11.8004 9.39102 11.4421 9.64935 10.9754 9.46602L10.2171 9.16602C10.0756 9.12434 9.92516 9.12434 9.78372 9.16602L9.02539 9.46602C8.55872 9.64935 8.20039 9.39102 8.23372 8.89102L8.28372 8.07435C8.28688 7.92961 8.23976 7.78825 8.15039 7.67435L7.63372 7.04102C7.30872 6.65768 7.45039 6.23268 7.93372 6.10768L8.72539 5.90768C8.85039 5.87435 9.00039 5.75768 9.06706 5.64935L9.50872 4.96602C9.78372 4.54102 10.2171 4.54102 10.4921 4.96602L10.9337 5.64935C11.0004 5.75768 11.1504 5.87435 11.2754 5.90768L12.0671 6.10768C12.5504 6.23268 12.6921 6.65768 12.3671 7.04102Z" fill="#FBC50D"/>
</svg>
