<svg width="24" height="24" viewBox="0 0 24 24" fill="none" xmlns="http://www.w3.org/2000/svg">
<path d="M15.2409 22.2705H15.1109C10.6709 22.2705 8.53094 20.5205 8.16094 16.6005C8.12094 16.1905 8.42094 15.8205 8.84094 15.7805C9.24094 15.7405 9.62094 16.0505 9.66094 16.4605C9.95094 19.6005 11.4309 20.7705 15.1209 20.7705H15.2509C19.3209 20.7705 20.7609 19.3305 20.7609 15.2605V8.74047C20.7609 4.67047 19.3209 3.23047 15.2509 3.23047H15.1209C11.4109 3.23047 9.93094 4.42047 9.66094 7.62047C9.61094 8.03047 9.26094 8.34047 8.84094 8.30047C8.74238 8.29277 8.64632 8.26569 8.55825 8.22077C8.47018 8.17586 8.39185 8.114 8.32774 8.03875C8.26364 7.96349 8.21502 7.87632 8.18468 7.78224C8.15434 7.68815 8.14288 7.589 8.15094 7.49047C8.49094 3.51047 10.6409 1.73047 15.1109 1.73047H15.2409C20.1509 1.73047 22.2509 3.83047 22.2509 8.74047V15.2605C22.2509 20.1705 20.1509 22.2705 15.2409 22.2705Z" fill="white"/>
<path d="M14.9991 12.75H3.61914C3.20914 12.75 2.86914 12.41 2.86914 12C2.86914 11.59 3.20914 11.25 3.61914 11.25H14.9991C15.4091 11.25 15.7491 11.59 15.7491 12C15.7491 12.41 15.4091 12.75 14.9991 12.75Z" fill="white"/>
<path d="M5.84965 16.0998C5.65965 16.0998 5.46966 16.0298 5.31965 15.8798L1.96965 12.5298C1.83017 12.3887 1.75195 12.1983 1.75195 11.9998C1.75195 11.8014 1.83017 11.611 1.96965 11.4698L5.31965 8.11984C5.60965 7.82984 6.08965 7.82984 6.37965 8.11984C6.66965 8.40984 6.66965 8.88984 6.37965 9.17984L3.55965 11.9998L6.37965 14.8198C6.66965 15.1098 6.66965 15.5898 6.37965 15.8798C6.23966 16.0298 6.03965 16.0998 5.84965 16.0998Z" fill="white"/>
</svg>
