<svg width="17" height="20" viewBox="0 0 17 20" fill="none" xmlns="http://www.w3.org/2000/svg">
<path d="M16.5 10.0005C16.5006 10.2551 16.4353 10.5056 16.3105 10.7275C16.1856 10.9495 16.0055 11.1353 15.7875 11.267L2.28 19.5302C2.05227 19.6696 1.79144 19.7457 1.52445 19.7507C1.25746 19.7556 0.993989 19.6892 0.76125 19.5583C0.530728 19.4294 0.338696 19.2414 0.204904 19.0137C0.0711107 18.786 0.000385179 18.5268 0 18.2627V1.73828C0.000385179 1.47417 0.0711107 1.21493 0.204904 0.987222C0.338696 0.759511 0.530728 0.571545 0.76125 0.442655C0.993989 0.311732 1.25746 0.245313 1.52445 0.250257C1.79144 0.255201 2.05227 0.33133 2.28 0.470781L15.7875 8.7339C16.0055 8.8656 16.1856 9.05145 16.3105 9.2734C16.4353 9.49534 16.5006 9.74582 16.5 10.0005Z" fill="white"/>
</svg>
