<svg width="34" height="34" viewBox="0 0 34 34" fill="none" xmlns="http://www.w3.org/2000/svg">
<g clip-path="url(#clip0_2477_842)">
<path d="M9.69186 10.512C9.956 10.4887 10.2186 10.5712 10.4218 10.7415C10.6251 10.9118 10.7524 11.1558 10.7758 11.42L10.9367 13.2414L11.9551 12.0257C14.9424 8.45954 20.3632 7.98075 23.9293 10.968C27.4954 13.9553 27.9742 19.3761 24.9869 22.9422C21.9996 26.5084 16.5789 26.9871 13.0127 23.9999C12.8094 23.8295 12.6821 23.5854 12.6588 23.3213C12.6354 23.0571 12.718 22.7944 12.8883 22.5911C13.0586 22.3878 13.3027 22.2605 13.5669 22.2372C13.8311 22.2138 14.0937 22.2964 14.297 22.4667C17.0169 24.7451 21.1754 24.3778 23.4538 21.6579C25.7321 18.9381 25.3648 14.7796 22.645 12.5012C19.9252 10.2228 15.7666 10.5901 13.4883 13.31L12.4698 14.5257L14.2913 14.3649C14.5529 14.3463 14.8112 14.4313 15.0108 14.6014C15.2103 14.7715 15.335 15.0132 15.3581 15.2744C15.3812 15.5356 15.3007 15.7954 15.1341 15.9978C14.9675 16.2003 14.728 16.3292 14.4673 16.3568L10.2411 16.7301C9.97692 16.7534 9.71435 16.6708 9.51108 16.5005C9.30781 16.3302 9.18049 16.0862 9.15712 15.8221L8.78385 11.5959C8.76056 11.3318 8.84313 11.0692 9.01341 10.8659C9.18369 10.6626 9.42772 10.5353 9.69186 10.512Z" fill="#008F70"/>
</g>
<defs>
<clipPath id="clip0_2477_842">
<rect width="24" height="24" fill="white" transform="translate(0.0957031 18.3975) rotate(-50.0475)"/>
</clipPath>
</defs>
</svg>
